{
  "accessors": [
    {
      "bufferView": 1,
      "componentType": 5126,
      "count": 556,
      "max": [
        2.628200054168701,
        2.7021501064300537,
        9.062170028686523
      ],
      "min": [
        -2.628200054168701,
        -2.7001099586486816,
        0.0979200005531311
      ],
      "type": "VEC3"
    },
    {
      "bufferView": 1,
      "byteOffset": 6672,
      "componentType": 5126,
      "count": 556,
      "max": [
        0.9999735951423645,
        0.8921682834625244,
        0.9273706078529358
      ],
      "min": [
        -0.9999735951423645,
        -0.9578555226325989,
        -1.0
      ],
      "type": "VEC3"
    },
    {
      "bufferView": 0,
      "componentType": 5125,
      "count": 852,
      "type": "SCALAR"
    }
  ],
  "asset": {
    "extras": {
      "author": "Chris (https://sketchfab.com/robie1)",
      "license": "CC-BY-4.0 (http://creativecommons.org/licenses/by/4.0/)",
      "source": "https://sketchfab.com/3d-models/knight-low-poly-431d71b3c88f4461bf7848d474b8367f",
      "title": "Knight - Low Poly"
    },
    "generator": "Sketchfab-12.67.0",
    "version": "2.0"
  },
  "bufferViews": [
    {
      "buffer": 0,
      "byteLength": 3408,
      "name": "floatBufferViews",
      "target": 34963
    },
    {
      "buffer": 0,
      "byteLength": 13344,
      "byteOffset": 3408,
      "byteStride": 12,
      "name": "floatBufferViews",
      "target": 34962
    }
  ],
  "buffers": [
    {
      "byteLength": 16752,
      "uri": "scene.bin"
    }
  ],
  "materials": [
    {
      "doubleSided": true,
      "name": "Root",
      "pbrMetallicRoughness": {
        "metallicFactor": 0.0,
        "roughnessFactor": 0.6
      }
    }
  ],
  "meshes": [
    {
      "name": "Pawn_0",
      "primitives": [
        {
          "attributes": {
            "NORMAL": 1,
            "POSITION": 0
          },
          "indices": 2,
          "material": 0,
          "mode": 4
        }
      ]
    }
  ],
  "nodes": [
    {
      "children": [
        1
      ],
      "matrix": [
        -2.220446049250313e-16,
        -6.123234262925839e-17,
        1.0,
        0.0,
        1.0,
        -4.930380657631324e-32,
        2.220446049250313e-16,
        0.0,
        2.465190328815662e-32,
        1.0,
        6.123234262925839e-17,
        0.0,
        -0.0005628792569041252,
        1.261298698199752e-19,
        -0.0005680384347215295,
        1.0
      ],
      "name": "Sketchfab_model"
    },
    {
      "children": [
        2,
        4
      ],
      "name": "Root"
    },
    {
      "children": [
        3
      ],
      "matrix": [
        0.5548500000000001,
        0.0,
        0.0,
        0.0,
        0.0,
        0.5548500000000001,
        0.0,
        0.0,
        0.0,
        0.0,
        0.5548500000000001,
        0.0,
        0.0,
        0.0,
        0.0,
        1.0
      ],
      "name": "Pawn"
    },
    {
      "mesh": 0,
      "name": "Pawn_0"
    },
    {
      "children": [
        5
      ],
      "matrix": [
        -0.29086000000000006,
        0.9551700000000001,
        -0.05519000000000001,
        0.0,
        -0.7711,
        -0.19988000000000003,
        0.6045200000000001,
        0.0,
        0.5663900000000001,
        0.21839000000000003,
        0.7946700000000001,
        0.0,
        4.076250000000001,
        1.00545,
        5.903860000000001,
        1.0
      ],
      "name": "Lamp"
    },
    {
      "name": "Lamp"
    }
  ],
  "scene": 0,
  "scenes": [
    {
      "name": "Sketchfab_Scene",
      "nodes": [
        0
      ]
    }
  ]
}
